<mxfile host="app.diagrams.net" modified="2022-01-26T02:52:25.358Z" agent="5.0 (Windows NT 10.0; Win64; x64) AppleWebKit/537.36 (KHTML, like Gecko) Chrome/97.0.4692.99 Safari/537.36" etag="KHw6Gni7X1R0K1rF20Ew" version="16.2.6" type="github">
  <diagram id="C5RBs43oDa-KdzZeNtuy" name="Page-1">
    <mxGraphModel dx="1483" dy="781" grid="1" gridSize="10" guides="1" tooltips="1" connect="1" arrows="1" fold="1" page="1" pageScale="1" pageWidth="827" pageHeight="1169" math="0" shadow="0">
      <root>
        <mxCell id="WIyWlLk6GJQsqaUBKTNV-0" />
        <mxCell id="WIyWlLk6GJQsqaUBKTNV-1" parent="WIyWlLk6GJQsqaUBKTNV-0" />
        <mxCell id="WIyWlLk6GJQsqaUBKTNV-2" value="" style="rounded=0;html=1;jettySize=auto;orthogonalLoop=1;fontSize=11;endArrow=block;endFill=0;endSize=8;strokeWidth=1;shadow=0;labelBackgroundColor=none;edgeStyle=orthogonalEdgeStyle;" parent="WIyWlLk6GJQsqaUBKTNV-1" source="WIyWlLk6GJQsqaUBKTNV-3" target="WIyWlLk6GJQsqaUBKTNV-6" edge="1">
          <mxGeometry relative="1" as="geometry" />
        </mxCell>
        <mxCell id="K30P3WPSMoxuYydxBk07-26" style="edgeStyle=orthogonalEdgeStyle;rounded=0;orthogonalLoop=1;jettySize=auto;html=1;exitX=0;exitY=0.5;exitDx=0;exitDy=0;" edge="1" parent="WIyWlLk6GJQsqaUBKTNV-1" source="WIyWlLk6GJQsqaUBKTNV-3" target="K30P3WPSMoxuYydxBk07-22">
          <mxGeometry relative="1" as="geometry" />
        </mxCell>
        <mxCell id="WIyWlLk6GJQsqaUBKTNV-3" value="Kantor Atensi" style="rounded=1;whiteSpace=wrap;html=1;fontSize=12;glass=0;strokeWidth=1;shadow=0;" parent="WIyWlLk6GJQsqaUBKTNV-1" vertex="1">
          <mxGeometry x="80" y="40" width="120" height="40" as="geometry" />
        </mxCell>
        <mxCell id="WIyWlLk6GJQsqaUBKTNV-5" value="No" style="edgeStyle=orthogonalEdgeStyle;rounded=0;html=1;jettySize=auto;orthogonalLoop=1;fontSize=11;endArrow=block;endFill=0;endSize=8;strokeWidth=1;shadow=0;labelBackgroundColor=none;" parent="WIyWlLk6GJQsqaUBKTNV-1" source="WIyWlLk6GJQsqaUBKTNV-6" target="WIyWlLk6GJQsqaUBKTNV-7" edge="1">
          <mxGeometry y="10" relative="1" as="geometry">
            <mxPoint as="offset" />
          </mxGeometry>
        </mxCell>
        <mxCell id="K30P3WPSMoxuYydxBk07-57" style="edgeStyle=orthogonalEdgeStyle;rounded=0;orthogonalLoop=1;jettySize=auto;html=1;exitX=0.5;exitY=1;exitDx=0;exitDy=0;entryX=0;entryY=0;entryDx=0;entryDy=52.5;entryPerimeter=0;" edge="1" parent="WIyWlLk6GJQsqaUBKTNV-1" source="WIyWlLk6GJQsqaUBKTNV-6" target="K30P3WPSMoxuYydxBk07-55">
          <mxGeometry relative="1" as="geometry" />
        </mxCell>
        <mxCell id="WIyWlLk6GJQsqaUBKTNV-6" value="Input Resi" style="rhombus;whiteSpace=wrap;html=1;shadow=0;fontFamily=Helvetica;fontSize=12;align=center;strokeWidth=1;spacing=6;spacingTop=-4;" parent="WIyWlLk6GJQsqaUBKTNV-1" vertex="1">
          <mxGeometry x="90" y="130" width="100" height="80" as="geometry" />
        </mxCell>
        <mxCell id="WIyWlLk6GJQsqaUBKTNV-7" value="Selesai" style="rounded=1;whiteSpace=wrap;html=1;fontSize=12;glass=0;strokeWidth=1;shadow=0;" parent="WIyWlLk6GJQsqaUBKTNV-1" vertex="1">
          <mxGeometry x="340" y="150" width="120" height="40" as="geometry" />
        </mxCell>
        <mxCell id="WIyWlLk6GJQsqaUBKTNV-9" value="Yes" style="edgeStyle=orthogonalEdgeStyle;rounded=0;html=1;jettySize=auto;orthogonalLoop=1;fontSize=11;endArrow=block;endFill=0;endSize=8;strokeWidth=1;shadow=0;labelBackgroundColor=none;" parent="WIyWlLk6GJQsqaUBKTNV-1" target="WIyWlLk6GJQsqaUBKTNV-12" edge="1">
          <mxGeometry y="10" relative="1" as="geometry">
            <mxPoint as="offset" />
            <mxPoint x="190" y="290" as="sourcePoint" />
          </mxGeometry>
        </mxCell>
        <mxCell id="K30P3WPSMoxuYydxBk07-34" style="edgeStyle=orthogonalEdgeStyle;rounded=0;orthogonalLoop=1;jettySize=auto;html=1;exitX=0.5;exitY=1;exitDx=0;exitDy=0;exitPerimeter=0;" edge="1" parent="WIyWlLk6GJQsqaUBKTNV-1" source="K30P3WPSMoxuYydxBk07-55" target="K30P3WPSMoxuYydxBk07-29">
          <mxGeometry relative="1" as="geometry">
            <mxPoint x="340" y="500" as="targetPoint" />
            <mxPoint x="411.75" y="340" as="sourcePoint" />
            <Array as="points">
              <mxPoint x="384" y="370" />
            </Array>
          </mxGeometry>
        </mxCell>
        <mxCell id="K30P3WPSMoxuYydxBk07-1" value="Yes" style="text;html=1;align=center;verticalAlign=middle;resizable=0;points=[];autosize=1;strokeColor=none;fillColor=none;" vertex="1" parent="WIyWlLk6GJQsqaUBKTNV-1">
          <mxGeometry x="150" y="270" width="30" height="20" as="geometry" />
        </mxCell>
        <mxCell id="K30P3WPSMoxuYydxBk07-8" value="" style="edgeStyle=orthogonalEdgeStyle;rounded=0;orthogonalLoop=1;jettySize=auto;html=1;" edge="1" parent="WIyWlLk6GJQsqaUBKTNV-1" source="K30P3WPSMoxuYydxBk07-5" target="K30P3WPSMoxuYydxBk07-6">
          <mxGeometry relative="1" as="geometry" />
        </mxCell>
        <mxCell id="K30P3WPSMoxuYydxBk07-5" value="Kantor Penindak" style="rounded=1;whiteSpace=wrap;html=1;fontSize=12;glass=0;strokeWidth=1;shadow=0;" vertex="1" parent="WIyWlLk6GJQsqaUBKTNV-1">
          <mxGeometry x="580" y="30" width="120" height="40" as="geometry" />
        </mxCell>
        <mxCell id="K30P3WPSMoxuYydxBk07-10" style="edgeStyle=orthogonalEdgeStyle;rounded=0;orthogonalLoop=1;jettySize=auto;html=1;entryX=1;entryY=0.5;entryDx=0;entryDy=0;" edge="1" parent="WIyWlLk6GJQsqaUBKTNV-1" source="K30P3WPSMoxuYydxBk07-6" target="WIyWlLk6GJQsqaUBKTNV-7">
          <mxGeometry relative="1" as="geometry" />
        </mxCell>
        <mxCell id="K30P3WPSMoxuYydxBk07-11" style="edgeStyle=orthogonalEdgeStyle;rounded=0;orthogonalLoop=1;jettySize=auto;html=1;exitX=0.5;exitY=1;exitDx=0;exitDy=0;entryX=1;entryY=0.5;entryDx=0;entryDy=0;entryPerimeter=0;" edge="1" parent="WIyWlLk6GJQsqaUBKTNV-1" source="K30P3WPSMoxuYydxBk07-6" target="K30P3WPSMoxuYydxBk07-55">
          <mxGeometry relative="1" as="geometry">
            <mxPoint x="443.5" y="300" as="targetPoint" />
          </mxGeometry>
        </mxCell>
        <mxCell id="K30P3WPSMoxuYydxBk07-6" value="Input Hasil" style="rhombus;whiteSpace=wrap;html=1;shadow=0;fontFamily=Helvetica;fontSize=12;align=center;strokeWidth=1;spacing=6;spacingTop=-4;" vertex="1" parent="WIyWlLk6GJQsqaUBKTNV-1">
          <mxGeometry x="590" y="130" width="100" height="80" as="geometry" />
        </mxCell>
        <mxCell id="K30P3WPSMoxuYydxBk07-12" value="Yes" style="text;html=1;align=center;verticalAlign=middle;resizable=0;points=[];autosize=1;strokeColor=none;fillColor=none;" vertex="1" parent="WIyWlLk6GJQsqaUBKTNV-1">
          <mxGeometry x="150" y="270" width="30" height="20" as="geometry" />
        </mxCell>
        <mxCell id="K30P3WPSMoxuYydxBk07-13" value="Yes" style="text;html=1;align=center;verticalAlign=middle;resizable=0;points=[];autosize=1;strokeColor=none;fillColor=none;" vertex="1" parent="WIyWlLk6GJQsqaUBKTNV-1">
          <mxGeometry x="650" y="260" width="30" height="20" as="geometry" />
        </mxCell>
        <mxCell id="K30P3WPSMoxuYydxBk07-32" value="" style="edgeStyle=orthogonalEdgeStyle;rounded=0;orthogonalLoop=1;jettySize=auto;html=1;exitX=1;exitY=0.5;exitDx=0;exitDy=0;exitPerimeter=0;" edge="1" parent="WIyWlLk6GJQsqaUBKTNV-1" source="K30P3WPSMoxuYydxBk07-38" target="K30P3WPSMoxuYydxBk07-31">
          <mxGeometry relative="1" as="geometry">
            <mxPoint x="270" y="660" as="sourcePoint" />
          </mxGeometry>
        </mxCell>
        <mxCell id="K30P3WPSMoxuYydxBk07-24" style="edgeStyle=orthogonalEdgeStyle;rounded=0;orthogonalLoop=1;jettySize=auto;html=1;exitX=0.5;exitY=1;exitDx=0;exitDy=0;entryX=0;entryY=0.5;entryDx=0;entryDy=0;entryPerimeter=0;" edge="1" parent="WIyWlLk6GJQsqaUBKTNV-1" source="K30P3WPSMoxuYydxBk07-22" target="K30P3WPSMoxuYydxBk07-38">
          <mxGeometry relative="1" as="geometry">
            <mxPoint x="150" y="660" as="targetPoint" />
            <Array as="points">
              <mxPoint x="50" y="585" />
            </Array>
          </mxGeometry>
        </mxCell>
        <mxCell id="K30P3WPSMoxuYydxBk07-22" value="Cek Resi" style="rhombus;whiteSpace=wrap;html=1;" vertex="1" parent="WIyWlLk6GJQsqaUBKTNV-1">
          <mxGeometry x="10" y="330" width="80" height="80" as="geometry" />
        </mxCell>
        <mxCell id="K30P3WPSMoxuYydxBk07-35" style="edgeStyle=orthogonalEdgeStyle;rounded=0;orthogonalLoop=1;jettySize=auto;html=1;exitX=0.5;exitY=1;exitDx=0;exitDy=0;entryX=0.5;entryY=0;entryDx=0;entryDy=0;" edge="1" parent="WIyWlLk6GJQsqaUBKTNV-1" source="K30P3WPSMoxuYydxBk07-29" target="K30P3WPSMoxuYydxBk07-37">
          <mxGeometry relative="1" as="geometry">
            <mxPoint x="210" y="520" as="targetPoint" />
          </mxGeometry>
        </mxCell>
        <mxCell id="K30P3WPSMoxuYydxBk07-29" value="Download Excell" style="shape=parallelogram;perimeter=parallelogramPerimeter;whiteSpace=wrap;html=1;fixedSize=1;" vertex="1" parent="WIyWlLk6GJQsqaUBKTNV-1">
          <mxGeometry x="150" y="340" width="120" height="60" as="geometry" />
        </mxCell>
        <mxCell id="K30P3WPSMoxuYydxBk07-36" style="edgeStyle=orthogonalEdgeStyle;rounded=0;orthogonalLoop=1;jettySize=auto;html=1;entryX=0.5;entryY=0;entryDx=0;entryDy=0;entryPerimeter=0;exitX=0.5;exitY=1;exitDx=0;exitDy=0;" edge="1" parent="WIyWlLk6GJQsqaUBKTNV-1" source="K30P3WPSMoxuYydxBk07-37" target="K30P3WPSMoxuYydxBk07-38">
          <mxGeometry relative="1" as="geometry">
            <mxPoint x="199.5" y="585" as="sourcePoint" />
            <mxPoint x="199.5" y="605" as="targetPoint" />
          </mxGeometry>
        </mxCell>
        <mxCell id="K30P3WPSMoxuYydxBk07-64" style="edgeStyle=orthogonalEdgeStyle;rounded=0;orthogonalLoop=1;jettySize=auto;html=1;exitX=1;exitY=0.5;exitDx=0;exitDy=0;entryX=0;entryY=0.5;entryDx=0;entryDy=0;" edge="1" parent="WIyWlLk6GJQsqaUBKTNV-1" source="K30P3WPSMoxuYydxBk07-31" target="K30P3WPSMoxuYydxBk07-46">
          <mxGeometry relative="1" as="geometry" />
        </mxCell>
        <mxCell id="K30P3WPSMoxuYydxBk07-31" value="Rekam Akun" style="whiteSpace=wrap;html=1;rounded=1;" vertex="1" parent="WIyWlLk6GJQsqaUBKTNV-1">
          <mxGeometry x="270" y="555" width="120" height="60" as="geometry" />
        </mxCell>
        <mxCell id="K30P3WPSMoxuYydxBk07-37" value="Upload" style="rounded=1;whiteSpace=wrap;html=1;" vertex="1" parent="WIyWlLk6GJQsqaUBKTNV-1">
          <mxGeometry x="150" y="430" width="120" height="60" as="geometry" />
        </mxCell>
        <mxCell id="K30P3WPSMoxuYydxBk07-38" value="SIOSS" style="shape=cylinder3;whiteSpace=wrap;html=1;boundedLbl=1;backgroundOutline=1;size=15;" vertex="1" parent="WIyWlLk6GJQsqaUBKTNV-1">
          <mxGeometry x="180" y="545" width="60" height="80" as="geometry" />
        </mxCell>
        <mxCell id="K30P3WPSMoxuYydxBk07-61" style="edgeStyle=orthogonalEdgeStyle;rounded=0;orthogonalLoop=1;jettySize=auto;html=1;exitX=1;exitY=0.5;exitDx=0;exitDy=0;entryX=0;entryY=0.75;entryDx=0;entryDy=0;" edge="1" parent="WIyWlLk6GJQsqaUBKTNV-1" source="K30P3WPSMoxuYydxBk07-46" target="K30P3WPSMoxuYydxBk07-50">
          <mxGeometry relative="1" as="geometry">
            <Array as="points">
              <mxPoint x="540" y="585" />
              <mxPoint x="540" y="495" />
            </Array>
          </mxGeometry>
        </mxCell>
        <mxCell id="K30P3WPSMoxuYydxBk07-62" style="edgeStyle=orthogonalEdgeStyle;rounded=0;orthogonalLoop=1;jettySize=auto;html=1;exitX=1;exitY=0.5;exitDx=0;exitDy=0;entryX=0;entryY=0.5;entryDx=0;entryDy=0;" edge="1" parent="WIyWlLk6GJQsqaUBKTNV-1" source="K30P3WPSMoxuYydxBk07-46" target="K30P3WPSMoxuYydxBk07-51">
          <mxGeometry relative="1" as="geometry" />
        </mxCell>
        <mxCell id="K30P3WPSMoxuYydxBk07-63" style="edgeStyle=orthogonalEdgeStyle;rounded=0;orthogonalLoop=1;jettySize=auto;html=1;exitX=1;exitY=0.5;exitDx=0;exitDy=0;entryX=0;entryY=0.5;entryDx=0;entryDy=0;" edge="1" parent="WIyWlLk6GJQsqaUBKTNV-1" source="K30P3WPSMoxuYydxBk07-46" target="K30P3WPSMoxuYydxBk07-48">
          <mxGeometry relative="1" as="geometry">
            <Array as="points">
              <mxPoint x="540" y="585" />
              <mxPoint x="540" y="690" />
            </Array>
          </mxGeometry>
        </mxCell>
        <mxCell id="K30P3WPSMoxuYydxBk07-46" value="SYNC CNCC" style="whiteSpace=wrap;html=1;rounded=1;" vertex="1" parent="WIyWlLk6GJQsqaUBKTNV-1">
          <mxGeometry x="414" y="555" width="120" height="60" as="geometry" />
        </mxCell>
        <mxCell id="K30P3WPSMoxuYydxBk07-48" value="ANALISA AKUN&lt;br&gt;" style="whiteSpace=wrap;html=1;rounded=1;" vertex="1" parent="WIyWlLk6GJQsqaUBKTNV-1">
          <mxGeometry x="560" y="660" width="120" height="60" as="geometry" />
        </mxCell>
        <mxCell id="K30P3WPSMoxuYydxBk07-50" value="PENGIRIMAN RESI VIA TELEGRAM" style="whiteSpace=wrap;html=1;rounded=1;" vertex="1" parent="WIyWlLk6GJQsqaUBKTNV-1">
          <mxGeometry x="560" y="450" width="120" height="60" as="geometry" />
        </mxCell>
        <mxCell id="K30P3WPSMoxuYydxBk07-51" value="PETA RAWAN" style="whiteSpace=wrap;html=1;rounded=1;" vertex="1" parent="WIyWlLk6GJQsqaUBKTNV-1">
          <mxGeometry x="560" y="555" width="120" height="60" as="geometry" />
        </mxCell>
        <mxCell id="K30P3WPSMoxuYydxBk07-55" value="CNCCT" style="shape=cylinder3;whiteSpace=wrap;html=1;boundedLbl=1;backgroundOutline=1;size=15;" vertex="1" parent="WIyWlLk6GJQsqaUBKTNV-1">
          <mxGeometry x="354" y="250" width="60" height="80" as="geometry" />
        </mxCell>
      </root>
    </mxGraphModel>
  </diagram>
</mxfile>
